<svg width="33" height="32" viewBox="0 0 33 32" fill="none" xmlns="http://www.w3.org/2000/svg">
<path d="M5.81197 0H27.0085C30.2222 0 32.8205 2.59829 32.8205 5.81197V26.188C32.8205 29.4017 30.2222 32 27.0085 32H5.81197C2.59829 32 0 29.4017 0 26.188V5.81197C0 2.59829 2.59829 0 5.81197 0Z" fill="#470137"/>
<path d="M17.2584 8.41027L13.1558 15.1795L17.5319 22.359C17.5593 22.4137 17.5729 22.4684 17.5593 22.5231C17.5456 22.5778 17.4909 22.5368 17.4088 22.5504H14.2772C14.0584 22.5504 13.908 22.5368 13.8123 22.4C13.5251 21.8257 13.2242 21.265 12.937 20.6906C12.6499 20.1299 12.3353 19.5556 12.0071 18.9675C11.6789 18.3795 11.3507 17.7915 11.0225 17.1898H10.9952C10.708 17.7778 10.3935 18.3658 10.0789 18.9539C9.76439 19.5419 9.44986 20.1299 9.14901 20.7043C8.83448 21.2786 8.51995 21.8667 8.20542 22.4274C8.15072 22.5641 8.04132 22.5778 7.89089 22.5778H4.88234C4.82764 22.5778 4.78661 22.6051 4.78661 22.5368C4.77294 22.4821 4.78661 22.4274 4.81397 22.3863L9.06696 15.412L4.92337 8.39659C4.88234 8.34189 4.86867 8.28719 4.89602 8.25984C4.92337 8.21881 4.97807 8.20514 5.03277 8.20514H8.13704C8.20542 8.20514 8.27379 8.21881 8.3285 8.23249C8.3832 8.25984 8.42422 8.30087 8.46525 8.35557C8.72508 8.9436 9.02593 9.53163 9.34046 10.1197C9.66867 10.7077 9.9832 11.2821 10.3251 11.8564C10.6533 12.4308 10.9541 13.0051 11.2413 13.5932H11.2687C11.5558 12.9915 11.8567 12.4034 12.1576 11.8291C12.4584 11.2547 12.7729 10.6804 13.0875 10.106C13.402 9.53164 13.7029 8.9436 14.0037 8.38292C14.0174 8.32822 14.0447 8.27352 14.0858 8.24616C14.1405 8.21881 14.1952 8.20514 14.2635 8.21881H17.149C17.2174 8.20514 17.2858 8.24616 17.2994 8.31454C17.3131 8.32822 17.2858 8.38292 17.2584 8.41027V8.41027Z" fill="#FF61F6"/>
<path d="M23.5761 22.8376C22.5642 22.8513 21.5522 22.6461 20.636 22.2222C19.7744 21.8256 19.0633 21.1692 18.571 20.3624C18.065 19.5282 17.8189 18.4889 17.8189 17.2444C17.8052 16.2325 18.065 15.2342 18.571 14.359C19.0907 13.4701 19.8428 12.7316 20.7454 12.2393C21.7026 11.706 22.8514 11.4461 24.2052 11.4461C24.2736 11.4461 24.3693 11.4461 24.4924 11.4598C24.6155 11.4735 24.7522 11.4735 24.9163 11.4872V7.1658C24.9163 7.07007 24.9573 7.01537 25.0531 7.01537H27.8291C27.8975 7.00169 27.9522 7.0564 27.9659 7.1111V20.1572C27.9659 20.4034 27.9796 20.6769 27.9932 20.9778C28.0206 21.2649 28.0343 21.5384 28.0479 21.7709C28.0479 21.8667 28.0069 21.9487 27.9112 21.9897C27.2001 22.2906 26.4479 22.5094 25.6821 22.6461C24.9847 22.7692 24.2872 22.8376 23.5761 22.8376V22.8376ZM24.9163 20.1025V14.0855C24.7932 14.0581 24.6702 14.0308 24.5471 14.0171C24.3966 14.0034 24.2462 13.9897 24.0958 13.9897C23.5625 13.9897 23.0291 14.0991 22.5505 14.3453C22.0855 14.5778 21.689 14.9196 21.3881 15.3573C21.0872 15.7949 20.9368 16.3829 20.9368 17.094C20.9231 17.5726 21.0052 18.0513 21.1693 18.5025C21.3061 18.8718 21.5112 19.2 21.7847 19.4735C22.0445 19.7196 22.359 19.9111 22.7146 20.0205C23.0838 20.1436 23.4667 20.1983 23.8496 20.1983C24.0548 20.1983 24.2462 20.1846 24.424 20.1709C24.6018 20.1846 24.7522 20.1573 24.9163 20.1025V20.1025Z" fill="#FF61F6"/>
</svg>
