<svg width="22" height="32" viewBox="0 0 22 32" fill="none" xmlns="http://www.w3.org/2000/svg">
<g clip-path="url(#clip0_1650_9012)">
<path d="M5.33529 31.9999C8.27929 31.9999 10.6686 29.6106 10.6686 26.6666V21.3333H5.33529C2.39129 21.3333 0.00195312 23.7227 0.00195312 26.6666C0.00195312 29.6106 2.39129 31.9999 5.33529 31.9999Z" fill="#0ACF83"/>
<path d="M0.00195312 16C0.00195312 13.056 2.39129 10.6667 5.33529 10.6667H10.6686V21.3333H5.33529C2.39129 21.3333 0.00195312 18.9439 0.00195312 16Z" fill="#A259FF"/>
<path d="M0.00195312 5.33333C0.00195312 2.38933 2.39129 0 5.33529 0H10.6686V10.6667H5.33529C2.39129 10.6667 0.00195312 8.27732 0.00195312 5.33333Z" fill="#F24E1E"/>
<path d="M10.6689 0H16.0023C18.9463 0 21.3357 2.38933 21.3357 5.33333C21.3357 8.27732 18.9463 10.6667 16.0023 10.6667H10.6689V0Z" fill="#FF7262"/>
<path d="M21.3357 16C21.3357 18.9439 18.9463 21.3333 16.0023 21.3333C13.0583 21.3333 10.6689 18.9439 10.6689 16C10.6689 13.056 13.0583 10.6667 16.0023 10.6667C18.9463 10.6667 21.3357 13.056 21.3357 16Z" fill="#1ABCFE"/>
</g>
<defs>
<clipPath id="clip0_1650_9012">
<rect width="21.3376" height="32" fill="white"/>
</clipPath>
</defs>
</svg>
