<svg width="125" height="28" viewBox="0 0 125 28" fill="none" xmlns="http://www.w3.org/2000/svg">
<path fill-rule="evenodd" clip-rule="evenodd" d="M5.05303 22.4475L0 8.36518C7.8053 7.74708 14.4464 5.00391 19.7067 0.237381L25.3873 14.4709C20.7119 18.9522 13.2502 22.2468 5.05303 22.4475Z" fill="#C0C6D4"/>
<path fill-rule="evenodd" clip-rule="evenodd" d="M97.0825 22.1355L105.625 4.37955L109.929 4.37691L101.385 22.1355H97.0825ZM112.035 0L110.522 3.14533L106.22 3.14335L107.733 0H112.035ZM89.1345 22.1355L99.7843 0H104.086L93.4365 22.1355H89.1345ZM80.9061 12.5536C82.3586 12.6711 84.9227 11.9414 86.5846 11.1153C89.0138 9.79523 89.077 7.12536 87.2774 7.15442C85.103 7.18347 82.9499 9.16127 80.9061 12.5536ZM79.3614 15.8402C77.7847 19.7423 82.0739 20.3294 87.0261 15.8699L88.5098 18.8918C82.6099 24.5241 74.9451 23.4397 74.9139 17.9811C75.0083 12.1725 81.0027 4.68927 86.8053 3.92654C91.1577 3.36919 93.5238 5.83434 92.1686 10.0884C90.8425 13.2872 86.427 15.518 79.3614 15.8402ZM72.4229 10.5546C73.9896 6.35207 69.4541 6.24905 65.4893 11.5498C62.5582 15.6659 62.189 18.5649 64.1611 18.874C65.9415 19.0912 68.1053 17.6503 70.6524 14.5519L72.349 17.8286C69.1084 21.4831 65.8812 23.0495 62.6682 22.5278C58.0028 21.738 57.3433 16.9298 61.1923 10.9324C64.6318 6.14802 68.1784 3.79183 71.9806 3.79645C75.5762 3.86513 77.1316 6.06349 76.3138 10.0059L72.4229 10.5546ZM59.414 25.1283C60.7841 25.1375 62.1287 24.5947 63.4484 23.4992L64.6694 26.3757C63.2205 27.53 61.8092 28.0689 60.4363 27.993L59.414 25.1283ZM44.874 22.2207L53.507 4.32474H57.7316L56.2053 7.62856C56.1272 7.77648 56.3814 7.75733 56.5574 7.42649C58.4251 4.05267 60.7266 3.2774 63.371 4.55323L61.066 8.34638C58.756 7.8729 56.7129 8.83109 54.9381 11.2196C53.14 13.7634 51.5441 17.3677 49.3158 22.2207H44.874ZM35.0504 7.32413C37.7991 4.87087 41.1179 3.65051 43.7871 3.93843C47.9123 4.47201 48.86 8.90439 45.6612 14.7533C43.0446 19.8704 39.4852 22.6123 35.536 22.6532C31.8076 22.6123 29.8185 20.0388 30.3744 17.0309C31.146 13.2754 35.2627 11.3418 43.2135 11.0387C43.8496 8.76307 43.6984 7.52951 42.3304 7.48856C40.2831 7.49319 38.2386 8.60855 35.9328 10.7514L35.0504 7.32413ZM42.0216 13.9734C35.7568 14.0962 32.9995 16.9074 34.8297 18.9387C36.5064 20.3347 40.5443 17.5644 42.0216 13.9734ZM104.963 22.1355L115.613 0H119.915L115.372 9.44325C115.229 9.76221 115.544 9.71532 115.544 9.71532L123.608 3.79381L124.771 7.09631L117.215 12.4103L118.895 22.1355H114.997L113.654 13.6914C113.621 13.4926 113.455 13.4312 113.363 13.6181L109.264 22.1355H104.963Z" fill="#C0C6D4"/>
</svg>
