<svg width="174" height="48" viewBox="0 0 174 48" fill="none" xmlns="http://www.w3.org/2000/svg">
<rect y="34" width="14" height="14" rx="2" fill="white"/>
<rect x="10" y="24" width="14" height="14" rx="2" fill="white"/>
<rect x="20" y="14" width="14" height="14" rx="2" fill="white"/>
<rect x="34" y="34" width="14" height="14" rx="2" fill="white"/>
<rect x="34" width="14" height="14" rx="2" fill="white"/>
<path d="M88.534 34H83.494L78.272 26.664L77.544 27.532V34H73.68V14.4H77.544V21.526L83.508 14.4H88.548L80.792 23.64L88.534 34ZM90.5784 34V14.4H102.982V18.264H94.4424V21.568H101.106V25.432H94.4424V30.136H102.982V34H90.5784ZM106.124 34V14.4H113.908C114.972 14.4 115.934 14.6707 116.792 15.212C117.66 15.744 118.346 16.4627 118.85 17.368C119.364 18.264 119.62 19.258 119.62 20.35C119.62 21.2087 119.471 22.0067 119.172 22.744C118.874 23.472 118.454 24.1113 117.912 24.662C117.371 25.2127 116.741 25.642 116.022 25.95L120.684 34H116.232L111.766 26.3H109.988V34H106.124ZM109.988 22.436H113.446C113.866 22.436 114.249 22.3333 114.594 22.128C114.949 21.9133 115.229 21.6287 115.434 21.274C115.649 20.91 115.756 20.5087 115.756 20.07C115.756 19.6407 115.649 19.2487 115.434 18.894C115.229 18.53 114.949 18.2407 114.594 18.026C114.249 17.8113 113.866 17.704 113.446 17.704H109.988V22.436ZM125.403 34.364C124.656 34.364 123.923 34.238 123.205 33.986C122.495 33.734 121.856 33.3607 121.287 32.866L123.765 29.898C123.942 30.038 124.166 30.1733 124.437 30.304C124.707 30.4347 125.029 30.5 125.403 30.5C125.879 30.5 126.308 30.3833 126.691 30.15C127.083 29.9073 127.395 29.59 127.629 29.198C127.862 28.7967 127.979 28.3627 127.979 27.896V14.4H131.843V27.896C131.843 29.0813 131.553 30.164 130.975 31.144C130.396 32.1147 129.617 32.894 128.637 33.482C127.666 34.07 126.588 34.364 125.403 34.364ZM146.515 14.4H150.379V34H146.515V25.432H139.067V34H135.203V14.4H139.067V21.568H146.515V14.4ZM162.843 34.364C161.517 34.364 160.271 34.1027 159.105 33.58C157.938 33.048 156.911 32.3153 156.025 31.382C155.138 30.4487 154.443 29.3707 153.939 28.148C153.435 26.916 153.183 25.6 153.183 24.2C153.183 22.8 153.435 21.4887 153.939 20.266C154.443 19.034 155.138 17.9513 156.025 17.018C156.911 16.0847 157.938 15.3567 159.105 14.834C160.271 14.302 161.517 14.036 162.843 14.036C164.177 14.036 165.428 14.302 166.595 14.834C167.761 15.3567 168.788 16.0847 169.675 17.018C170.561 17.9513 171.252 19.034 171.747 20.266C172.251 21.4887 172.503 22.8 172.503 24.2C172.503 25.6 172.251 26.916 171.747 28.148C171.252 29.3707 170.561 30.4487 169.675 31.382C168.788 32.3153 167.761 33.048 166.595 33.58C165.428 34.1027 164.177 34.364 162.843 34.364ZM162.843 30.5C163.636 30.5 164.383 30.3367 165.083 30.01C165.783 29.674 166.399 29.2167 166.931 28.638C167.463 28.0593 167.878 27.392 168.177 26.636C168.485 25.88 168.639 25.068 168.639 24.2C168.639 23.332 168.485 22.52 168.177 21.764C167.878 20.9987 167.463 20.3313 166.931 19.762C166.399 19.1833 165.783 18.7307 165.083 18.404C164.383 18.068 163.636 17.9 162.843 17.9C162.049 17.9 161.303 18.068 160.603 18.404C159.903 18.7307 159.287 19.1833 158.755 19.762C158.223 20.3407 157.803 21.008 157.495 21.764C157.196 22.52 157.047 23.332 157.047 24.2C157.047 25.068 157.196 25.8847 157.495 26.65C157.803 27.406 158.223 28.0733 158.755 28.652C159.287 29.2213 159.903 29.674 160.603 30.01C161.303 30.3367 162.049 30.5 162.843 30.5Z" fill="white"/>
</svg>
