<svg width="155" height="28" viewBox="0 0 155 28" fill="none" xmlns="http://www.w3.org/2000/svg">
<path fill-rule="evenodd" clip-rule="evenodd" d="M18.7332 13.3571C19.8324 12.3408 21.077 10.6608 21.077 8.5245C21.077 4.81187 18.8783 0.871094 13.1123 0.871094C10.8516 0.871094 0.771484 0.871094 0.771484 0.871094V8.85636V19.4757V27.4195C0.771484 27.4195 11.9509 27.4195 14.7095 27.4195C19.0235 27.4195 22.0932 23.4787 22.0932 19.9735C22.0932 16.9868 20.5583 14.6431 18.7332 13.3571ZM6.91083 6.63707C6.91083 6.63707 10.9138 6.63707 12.0961 6.63707C13.2576 6.63707 14.1287 7.88154 14.1287 9.12599C14.1287 10.4327 13.1746 11.5942 11.5776 11.5942C9.98055 11.5942 6.91083 11.5942 6.91083 11.5942V8.85636V6.63707ZM11.8057 22.0269C10.1879 22.0269 6.91083 22.0269 6.91083 22.0269V19.4757V16.6135C6.91083 16.6135 10.4783 16.6135 12.0131 16.6135C13.8383 16.6135 14.8546 18.0858 14.8546 19.3095C14.8546 20.5543 13.9836 22.0269 11.8057 22.0269Z" fill="#C0C6D4"/>
<path fill-rule="evenodd" clip-rule="evenodd" d="M35.8848 0.352539C29.9114 0.352539 23.627 5.18518 23.627 14.0001C23.627 22.0891 29.0195 27.8547 35.8848 27.8547C42.75 27.8547 48.1634 22.0891 48.1634 14.0001C48.1634 5.18518 41.8789 0.352539 35.8848 0.352539ZM35.8848 21.7987C32.3796 21.7987 29.7662 18.1483 29.7662 13.7927C29.7662 9.56152 33.1885 6.49185 35.8848 6.49185C38.6019 6.49185 42.0241 9.56152 42.0241 13.7927C42.0241 18.1483 39.39 21.7987 35.8848 21.7987Z" fill="#C0C6D4"/>
<path fill-rule="evenodd" clip-rule="evenodd" d="M63.9278 11.3868C59.5722 10.7231 57.0004 10.1423 57.0004 8.17193C57.0004 6.69932 57.7885 5.76598 59.7589 5.76598C61.6671 5.76598 64.073 6.78228 65.6079 7.88156L69.196 3.65041C66.8523 1.59705 62.0404 0 60.2774 0C54.0759 0 50.1973 3.71262 50.1973 8.52452C50.1973 13.5023 53.5988 15.8043 57.0004 16.3231C60.796 16.9039 63.4923 17.7125 63.4923 19.6206C63.4923 21.1347 61.8952 21.9439 60.1322 21.9439C57.2907 21.9439 55.2374 20.5543 53.4951 18.7291C51.6699 20.5543 49.4092 22.9599 49.4092 22.9599C51.587 25.5321 54.4285 27.7929 59.6137 27.7929C66.6242 27.7929 70.3575 22.8147 70.3575 19.2476C70.3575 14.7883 67.2879 11.8846 63.9278 11.3868Z" fill="#C0C6D4"/>
<path fill-rule="evenodd" clip-rule="evenodd" d="M84.7105 6.49199C86.7431 6.49199 87.7179 7.59126 89.4601 9.56165L94.5002 6.11865C92.0113 2.40602 88.9624 0.145264 84.3579 0.145264C77.8037 0.145264 72.3281 6.20161 72.3281 14.0624C72.3281 21.944 77.8037 28.0001 84.3579 28.0001C88.9624 28.0001 92.0113 25.7396 94.5002 22.027L89.4601 18.584C87.7179 20.5544 86.7431 21.6536 84.7105 21.6536C81.3504 21.6536 78.6748 18.8121 78.6748 14.0624C78.6748 9.3335 81.3504 6.49199 84.7105 6.49199Z" fill="#C0C6D4"/>
<path fill-rule="evenodd" clip-rule="evenodd" d="M111.737 10.1423H103.71V0.871094H97.1973V27.4195H103.71V16.8416H111.737V27.4195H118.229V0.871094H111.737V10.1423Z" fill="#C0C6D4"/>
<path fill-rule="evenodd" clip-rule="evenodd" d="M148.32 7.61184C147.594 6.80294 146.744 6.1185 145.79 5.59998V10.2874H140.978H136.083V5.59998C135.129 6.1185 134.278 6.80295 133.573 7.5911C131.935 9.41631 130.98 11.8015 130.98 14.2904C130.98 16.7793 131.935 19.1853 133.573 21.0105C134.278 21.8191 135.129 22.5036 136.083 23.0224V18.1897H140.978H145.79V23.0224C146.744 22.5036 147.594 21.8191 148.32 21.0105C149.958 19.1853 150.913 16.7793 150.913 14.2904C150.913 11.8015 149.958 9.4163 148.32 7.61184ZM133.573 18.8531C132.723 17.4842 132.266 15.8875 132.266 14.2904C132.266 12.6726 132.723 11.0756 133.573 9.70668C133.926 9.12593 134.361 8.58666 134.838 8.10962L134.88 20.5127C134.382 20.0149 133.946 19.4546 133.573 18.8531ZM145.79 16.883H140.978H136.083V11.6356H140.978H145.79V16.883ZM147.013 20.5127L147.034 8.10962C147.532 8.58666 147.967 9.12593 148.32 9.70668C149.17 11.0756 149.627 12.6726 149.627 14.2904C149.627 15.8875 149.15 17.4842 148.32 18.8531C147.947 19.4546 147.511 20.0149 147.013 20.5127Z" fill="#C0C6D4"/>
<path fill-rule="evenodd" clip-rule="evenodd" d="M148.32 2.92451C146.204 1.55561 143.674 0.767456 140.977 0.767456C138.24 0.767456 135.709 1.57635 133.573 2.96599C129.881 5.39268 127.434 9.56162 127.434 14.2906C127.434 19.0195 129.881 23.1884 133.573 25.6151C135.709 27.0045 138.24 27.8344 140.977 27.8344C143.674 27.8344 146.204 27.0255 148.32 25.6566C152.053 23.2299 154.521 19.0402 154.521 14.2906C154.521 9.54088 152.053 5.3512 148.32 2.92451ZM148.32 23.9973C146.266 25.5526 143.736 26.4655 140.977 26.4655C138.198 26.4655 135.627 25.5321 133.573 23.9555C130.669 21.7158 128.782 18.2106 128.782 14.2906C128.782 10.3705 130.669 6.86529 133.573 4.64601C135.627 3.04896 138.198 2.11562 140.977 2.11562C143.736 2.11562 146.266 3.04896 148.32 4.58379C151.265 6.82381 153.152 10.3498 153.152 14.2906C153.152 18.231 151.265 21.757 148.32 23.9973Z" fill="#C0C6D4"/>
</svg>
