<svg width="127" height="28" viewBox="0 0 127 28" fill="none" xmlns="http://www.w3.org/2000/svg">
<path fill-rule="evenodd" clip-rule="evenodd" d="M126.167 5.09777C118.929 5.09777 115.078 9.10831 114.929 14.3057C113.889 8.65082 108.948 4.9582 103.323 4.9582C97.7278 4.9582 92.9518 8.63652 91.9104 14.2244C91.8918 9.25672 87.9634 4.96841 82.8538 4.96841C80.6284 4.96841 78.6973 5.8126 77.1549 7.28651V0.0381298H71.7111V16.1808C71.7111 16.7108 71.6918 17.0531 71.6153 17.8382C71.2851 21.1918 68.9998 22.8465 66.5128 22.8465C63.9273 22.8465 61.5935 21.6396 61.5232 17.8568C61.5113 17.2036 61.4925 16.9324 61.4925 16.4683V10.425H69.9674V5.34966H61.4925V0.0381298H55.9734V14.2515C54.9251 8.9599 50.206 4.96705 44.5396 4.96705C40.8899 4.96705 37.6327 6.62614 35.4965 9.21996V5.09777H34.8915C27.7811 5.09777 23.9389 8.96875 23.664 14.0329C22.6198 8.90135 18.3239 5.09777 12.8955 5.09777C10.0542 5.09777 7.83403 6.11828 6.09894 7.83183V0H0.771484V13.6124C0.771484 14.6174 0.801368 15.5641 0.813483 16.471C0.890211 22.7688 5.35107 27.9359 12.2615 27.9359C18.2246 27.9359 22.5667 24.1022 23.6473 18.9936V27.3977H29.1073V16.9071C29.1073 16.4287 29.1347 15.8976 29.1501 15.4075C29.2518 12.2107 31.3708 10.3065 34.7411 10.2507C33.5705 12.0448 32.8897 14.1778 32.8897 16.471C32.8897 22.8254 38.1051 27.9739 44.5396 27.9739C50.206 27.9739 54.9251 23.9826 55.9734 18.691V18.7054C55.9734 24.2318 60.4658 28 65.8772 28C68.159 28 70.1735 27.0349 71.7111 25.4555V27.395H77.1549V15.9772C77.1577 15.7061 77.168 15.487 77.1749 15.2767C77.3128 11.614 79.4865 10.0199 81.8738 10.0199C84.2405 10.0199 86.288 11.6201 86.37 15.2589C86.3886 15.575 86.3928 15.7865 86.3928 16.142V27.3958L91.9118 27.3985V18.8583C92.949 24.3729 97.681 27.9325 103.326 27.9325C109.728 27.9325 113.345 23.8852 114.315 19.6521H108.976C108.509 21.1573 106.614 23.4677 103.323 23.4677C100.356 23.4677 97.8243 21.4655 97.1841 18.1959H114.922V27.3977H120.381V16.9071C120.381 16.4287 120.41 15.8976 120.427 15.4075C120.529 12.1623 122.708 10.2445 126.167 10.2445H126.771V5.09777H126.167ZM12.2615 22.7579C8.66726 22.7579 5.89894 19.98 5.89894 16.471C5.89894 12.962 8.64948 10.1853 12.2615 10.1853C15.8735 10.1853 18.6252 12.946 18.6252 16.471C18.6252 19.9962 15.8566 22.7579 12.2615 22.7579ZM44.5396 22.7579C40.9456 22.7579 38.1778 19.98 38.1778 16.471C38.1778 12.962 40.9281 10.1853 44.5396 10.1853C48.1527 10.1853 50.9033 12.946 50.9033 16.471C50.9033 19.9962 48.1347 22.7579 44.5396 22.7579ZM97.4239 13.9457C98.3212 11.198 100.637 9.50044 103.323 9.50044C106.777 9.50044 108.845 12.2368 109.238 13.9457H97.4239Z" fill="#C0C6D4"/>
</svg>
