<svg width="32" height="32" viewBox="0 0 32 32" fill="none" xmlns="http://www.w3.org/2000/svg">
<path d="M20.7455 1.9798C20.2592 0.482884 18.6516 -0.336264 17.1549 0.150293C15.658 0.636589 14.8388 2.24419 15.3254 3.74085L22.6938 26.4115C23.1998 27.8098 24.7103 28.5957 26.1603 28.1784C27.6727 27.7429 28.5947 26.1367 28.112 24.6513C28.0937 24.5946 20.7455 1.9798 20.7455 1.9798Z" fill="#DFA22F"/>
<path d="M9.32825 5.68943C8.84169 4.19277 7.23409 3.37362 5.73743 3.85992C4.24051 4.34621 3.42137 5.95382 3.90792 7.45074L11.2763 30.1214C11.7823 31.5197 13.2928 32.3056 14.7428 31.888C16.2552 31.4528 17.1772 29.8465 16.6945 28.3609C16.6762 28.3045 9.32825 5.68943 9.32825 5.68943Z" fill="#3CB187"/>
<path d="M30.0204 20.7557C31.5173 20.2694 32.3362 18.6618 31.8499 17.1649C31.3636 15.6682 29.756 14.8491 28.2593 15.3354L5.58864 22.704C4.19034 23.2097 3.4045 24.7203 3.82182 26.1702C4.25723 27.6826 5.86352 28.6046 7.3489 28.122C7.40555 28.1036 30.0204 20.7557 30.0204 20.7557Z" fill="#CE1E5B"/>
<path d="M10.3133 27.1588C11.789 26.6793 13.6909 26.0614 15.7318 25.3983C15.2523 23.9226 14.6343 22.0205 13.971 19.9793L8.55225 21.7406L10.3133 27.1588Z" fill="#392538"/>
<path d="M21.731 23.4489C23.7796 22.7835 25.6836 22.1647 27.1495 21.6884C26.6701 20.2127 26.0518 18.31 25.3885 16.2683L19.9697 18.0296L21.731 23.4489Z" fill="#BB242A"/>
<path d="M26.3105 9.33823C27.8072 8.85193 28.6263 7.24433 28.14 5.74741C27.6537 4.25075 26.0461 3.43161 24.5492 3.9179L1.87853 11.2866C0.480236 11.7923 -0.305601 13.3028 0.111973 14.7528C0.547121 16.2652 2.15342 17.1871 3.63906 16.7045C3.69545 16.6862 26.3105 9.33823 26.3105 9.33823Z" fill="#72C5CD"/>
<path d="M6.60262 15.7416C8.07829 15.2622 9.98072 14.6439 12.0219 13.9808C11.3565 11.9321 10.7377 10.0281 10.2614 8.56183L4.84131 10.3234L6.60262 15.7416Z" fill="#248C73"/>
<path d="M18.0201 12.032C20.0691 11.3663 21.9734 10.7475 23.4396 10.271C22.7739 8.22191 22.1552 6.31738 21.6786 4.85089L16.2588 6.61246L18.0201 12.032Z" fill="#62803A"/>
</svg>
